<mxfile host="Electron" modified="2023-04-26T17:59:30.738Z" agent="Mozilla/5.0 (X11; Linux x86_64) AppleWebKit/537.36 (KHTML, like Gecko) draw.io/21.2.1 Chrome/112.0.5615.87 Electron/24.1.2 Safari/537.36" etag="P2M4eLhp0iVK5EPysNZP" version="21.2.1" type="device">
  <diagram name="Page-1" id="fMlxpdGR1uuL9NhFbNLO">
    <mxGraphModel dx="2250" dy="706" grid="1" gridSize="10" guides="1" tooltips="1" connect="1" arrows="1" fold="1" page="1" pageScale="1" pageWidth="850" pageHeight="1100" math="0" shadow="0">
      <root>
        <mxCell id="0" />
        <mxCell id="1" parent="0" />
        <mxCell id="NEWfJnRq4Y2I6aakKRTM-2" value="" style="shape=image;verticalLabelPosition=bottom;labelBackgroundColor=default;verticalAlign=top;aspect=fixed;imageAspect=0;image=data:image/png,iVBORw0KGgoAAAANSUhEUgAAAVUAAAEGCAYAAADVFgZ3AAAABHNCSVQICAgIfAhkiAAAABl0RVh0U29mdHdhcmUAZ25vbWUtc2NyZWVuc2hvdO8Dvz4AAAAtdEVYdENyZWF0aW9uIFRpbWUAV2VkIDI2IEFwciAyMDIzIDEyOjQzOjE5IFBNIEVEVPYiGx8AACAASURBVHic7L1XtGTXeef3+/Y5lW5OnSO6ATQaAJEBkogEmAVQoCiS0kgaa+S1xmNpPNZ4bK/xg5efvJYfZvlhlj3WzJItaWRZoqjEBJEgIgNIEI1IpO4GGmh0TjffW+mcsz8/7HOq6oZu3Lpd6O577/71qr6p6qSq89/f/tIWTVTxeDwez7L5l//mf+A7f/+3AJjLfCwej8ezqvCi6vF4PB3Ei6rH4/F0EC+qHo/H00G8qHo8Hk8HCS/3AXg8Hs9q4Fe/8lUAxKdUeTweT+fw03+Px+PpIF5UPR6Pp4N4UfV4PJ4O4kXV4/F4OogXVY/H4+kgXlQ9Ho+ng3hR9Xg8ng7iRdXj8Xg6iBdVj8fj6SBeVD0ej6eDeFH1eDyeDuIbqqw2pKWVg8rlOw6PZ43iLdVVhwUS91V8rxyP51LjLdXVhraOk95S9XguNV5UVxmJCImCEQjUy6rHc6nx0/9VhAJlgWdee5+TFUjE/c7j8Vw6vKiuIsTAwbPw+Ivvc+C0Tc1UL6sez6XET/9XGgKKAjInDmUFyjE88bP9TGk/P3jul9y27Rb6Q8Goi1lp+vrGF6+3QMtlEPdDVeD0BJybAk2gYODqbVAS707xfDheVFcYClgUQebc4DHw5pFJPjgzQ026GZ2t8txrJ/j07ZspkiYCiMsNyF7nBcKhAggkChh45hV4fN8Mh0eLYAMGguP8r/96K1vy/pp5Phw//V9huPvfzLu5lVoCLx+aJCYHqsRWePHAGcYrToizlNVAwahF1vTSZM1z19TyrymcieCPfgh/9thpPjgbYiXEBEIcRSTJZTxcz4rCW6orDQVJp6kAiBKL8MGZhLeOT1LXAESQIMepcsTr704wcuMA+VRUVUlt3LVpczkRdVdAVbEI05Hw6nvw+POjHDhZJDYjYAISqxgEYwKMNz88S8R/VFYgMidVylIBntj3JhN1g0qAqqIIZZvjhTffpyapEJOKisiaLrbKxqPECGWBb/+ozJ9++wRvn+gh1m5EYtAaRgRn0Ctr2rD3tIW3VFc6Krx1rM47J8sYhrCapJasIBpwfHyKfQdnePCaHkRt6jhYw4pKIx7Fe2fhj78zzruncySsB4X+Hrj9mgLTZXjx4Fq/Up7l4C3VlYooVmAqNjz/+mEqWkLne1pFqEk3jz/3BuM1UDGArvGovyIoBsuB92PeOxNipYsCk1y3YZzf/xX4J1+AgS6LVYtFsbjsCusV1rMEvKW6IlFASUR490zC4dMzRFpAsmT/FtGMyTFeDfnZWyf57K2bKK7xcVQaF0ixiYUkYl33BLfv7eNrn8sxKFARMFRACigBljU+DnnawovqikRAhUjguf2nmY4gCIXYKqgiqQ/VKgRGiJOQfe/PcNt1sKV4uY/9ctN0f4z0wX039vDAzXmu2wZ5ALFYjMsEVrOmfc+e5eFFdaWRakIEHB+FN987QkIBsZYQS4JijAtWGRujosQm4Oi5Mu+dqrNuV578mk4P0vRhuGtPwK17AvJBJrMWixAABiGR+dnAHs+H40V1paEuFciIcOqDg9yxs4+EPLEUODFW5dhEnSSBQGCwqOzeOkRIlUCFiVPvYXdeh/rKIMCSN0IeAY1Tn6lBEAzNCjR/nTzt4kV1BSIqBCj33byL+yREgYqBb//sNKcnpkkIMGJZX0r43c9spkfBWCAAq/PqVdcsqWQqrmkCAEKgrjpNvCfVs0y8qK5EJP1PwsaPTiITss4ApD8bwGQml2VBLdbao7VINzPZ3VUJtFl9ZsXQemU9nqWytkPBqw4npyJzf/bMZ6FYzlmFpvEcj6d9vKiuMkS8deXxXE68qK5CxGuqx3PZ8KK6yvCWqsdzefGiugrxkro8skY1mX/VDU/zi389ngvjo/8eTwuStlYUzURWESxZLoDH82F4S9Xj8Xg6iBdVj8fj6SBeVD0ej6eDeFH1eFrJHKe+1b9nmXhR9XjmZKFp42sgpK0AbaO3VeNZwpy7R0VR8ULs8dF/z1pEm18kcH1nGwsiqKAGEhuAJiiKmDw2bbdopbkcS6jeKvEsxIuqZ42R5kohTFeFw6cgsS2GqlhqYpgop42qrUGlxIH34VyhadSKQJdW2HNViUBd5zCPB7yoetYkzlR9/bDw18+MUa7EmNTmVGKslJhJSlgJCQKo0c9f/WOZkBmyBa41UXqDCf7Lr+7hpu1pJzCPBy+qnjVH5h0Vxmbg+HQPcRK4aT+pbxSTLg/o4lV1yVGrBiB5Z+hiEAtVo5wYg49tv7xn5Lmy8KLqWZuooasEYRiRxBFqBEVRsYAh0IDAhohEWJREnNCKaNaClUI+YXjgMp+H54rDi+oqQlWx1mJFEbWoTwtahLTgVOC+G+HjN3YDzcUQsiuW9QGAsJkPkPW0Tn8RsIUQH6zyzMWLqmcN4uQyr+kKqhkfNgb5McqzBPwg6/F4PB3Ei6rH4/F0EC+qHo/H00G8qHo8Hk8H8aLq8Xg8HcSLqsfj8XQQL6oej8fTQbyoejweTwfxourxeDwdxIvqqsJVColI9t3lPBiPZ03iRXUVIdIiqCKI11SP55LjRdXj8Xg6iBdVj8fj6SBeVD0ej6eDeFH1eDyeDuJF1ePxeDqIF1WPx+PpIF5UPR6Pp4N4UfV4PJ4O4kXV4/F4Oohf+G+Voapo65KfawlR0pPv8HZBUUCQ1uVW5+2r+aOmL3PLs7Y+Tdbg27LW8JbqqsLdvaqKKit/iWpl4digizwgVatFzvc8v27vMBTFtmzmfAfm/k/EPVtbfwdYaBnw7MUdlOeKxVuqqwzVdMH6lS6o5yOz+hbompKYBDAIYOYIbmd2LC3ft5qfKqAIJr30ogakaZUadX0ZtGG2Zg/PasSLqufKZDFDUJzFV1eYmYVyFaqxs/msGGxgyIfQX4L+IpR07muXj6Ri6X5KgEhgugIzNajEEMdOPA0Q5KCUg8FuKAUQSHMrDUPVa+qqxYuq58plnlVatfD2kYTXD9U4eEw5MREyEUOcOAs9yEF/mHDVZsNNuwIeviNPXi9ev5yYilPvAE6Mwr53Il57p8qpmQKjFUNUs6AhxgjFrpj1xQp7txruv7mHXVshtBBkYuoFdVXjRdVzZdIqqAYmYvh//7HCz94apxIVMGEPYgrUsim3QBwp4/WEqUMJb7w7zWtvh/zTL/aze7glQNSmoLUalZGBp1+Dbz51hDPlXoIgILYxmC6sAbEQCszMKOWZHEfOVfj5Oyf5nQc3cd9N7u9BegxWUheFZ9XhRfWj4qOKRK8FUv+jqIC4Kfa//8Zx3jheIDKbsGFMXmYZKlXJ5QCNqdQsM7U8FbqoawEjBV4/VuHvnp3k97/WT1/C8ixEARRigVc+gL/+4WHG4k3EuQJGp+nNTdNXmiGfN8SRUK4GTCYl6hTAlBir1vjLH35Af/8Obtmeiio+Qrya8aL6keKdZ8shizGJWBIMx8Zi3j0HNemlRIX+3joP3T7ArVdDT95ZfZUY9r0J3/vpGcoyQCx5qrbEvndn2fkCfP1Omk272wi8C4qKEAH7DiZUtY9AlL5giut3dvPgXb1s6YdiCImFqRr8xffhrRNVIi1go4Bzuo0f/mKKXev7GC66bfoBd/XiRfWjYs5N09Ew9KpHlIaVikBfPsAQsb6vwmdv6uVL93ZREDedNoAGYBV23QcbR9bz54+dYzQaIRdAPRniqZ+e4ku3bKSUB2yb74K64FII9BYC8jrGjTsNj94/wNVb3LGGaYAKA7HCf/tl+I+PCa8erkEYYIEjJyYpx30MSupb9axavKh+RKiCZHO8TCAsXleXijgLUYB1Q8J/9aUd9PYI12yAEjgVTa+raFOo7rkODrw3wPdfsyTWoBimq4ZDx+D6nWkkvk1RU8AIfPYWuH7z1ezcBoOpQAeNwJMFDAGwsQe+9rkC7//JKcbqI6gIk2VhKoZN6bbSU/SsQrxr5yMiDmA6hqkY1OA9AW2golhR0NRqFfjktcJNm6DUyMFtWrKthQBFget3heRM3EjVtRpydhKspe2ce5XmmLipB+7YDSN55xsNWnaNmsb+DJatQzBUqiOEqIVI8+z7ZfZ8aRQGeFYf3lL9iNh/Er7xj6fJF4f49ftz7NkCuct9UCsE0UZGJ5myGnWWIJg0CEgqqgnY5sc4SaC7C7rzEVEtQDTAYFGJCYPQJZm2MbhJVkuRqXv2S3X+B8kKATIBFwjUEBoYHuzigyncIoyEBHl3Bm4c8CPsasWL6qK4OzZzi4orMAQNFo0vLDaNe/3dmP2nIqypsP7ls+zeutmJascS0hc5DpEFj5WPpFP7IPvR/dc4t2DudRSwBqzpIrNmBUOgMZawIWrLOY4GDRE1c/6s6WFZ4wziyZmIKE0Jk7jMx3YPuad2IHfWc+XiRXVRnKBmM8WGdSELqyPPd3NEGhLThVKkllSwy/DlXRSr6K6VBSPZPIFrweIqrWqJNLwDhpiRwbwT2GzO3vYxnP9vmh5GZszWLZyYhpOjrgeDVRjsCxnsan+/npWHF9VFUCDGlSIqEGAI1M0cF4hVy6xw/jYCAuc906BR2pjdnGrS5O/UX+cTwZdJq09V3HU9ccZSj7J3DkKpsGWDcZMNOjHeaOON1Ey6M+vTQpTA955KKNt15AKwouza2kd/EReAa+125Vl1eFFdhMTAD19N+PPHTxLakMRCkt2587ohCbJotK8mfdRMN4mEPPOO5bn/bZRQaxgERQipct/Nm/n65/P0GE3bgHjapiVbzQKzwBvvjZHYfixK3kRcv2uDi9YnLf1MLop0IwY0sc7NIm4gno7ge8/DywcnSejHAP1ygk9ev4X+XNbxShpb8aw+vKguQsXC/sOTjNuN5KxBERJJk7bnzR3d9FIW/E5VGjdPjRKRlghwFmkiYKjz5nHL5Cz09Prb62JwhQIuKeDV9+G9UwnGBAiGntw4v/LgOmzj/bv4a12xcHgMqnVQDCJQqcK5CXjtYMTrh8tUkyJGZxgpRnz1M1u44zoQq2iaZ6dyYZeCZ+XiRXURjIHZ2RglIJYktUsUQ8xCURUMsuCGVXIIAUZdN01BMSouEo0gRERJQmCKPq9ticx3rWZBeGvd16kafOO7p6jaIVyAK+KGHSV2jEBsEgIrqZulXWFtmsNW4PQM/Lu/Oks9ikFyoAGJQi3popbkwfQjps41W0r8+oPCbduhSDYAz9ukZ9XhRXURFMgFAUUj1GPnFw2psnHQEhhnfxqjrm9m1r+TBFEnvQmW8YphfFYxQUh/MWKw15DEVQKTB4U8ZT6xp0R/wScLLxWFdMbQ9EFnwcSyhe+8EHNuKkQlj5GYjd2TfO7jI/SYrC+LWaahmrl+AiLghddnODPTBwSICVzLaRVX7GFw6VQDeXbtcA1W6jXI58GIIDah2QHAsxrxoroIOWDHxgIvH55FTZHECkqOfDHHp+6E67ZBNws7H7WmynznBXjqxSqahOzdbPja5wsUtNCSUVBisATdeWdpeWFdGpmgZtc6UKgIHDgOz7xUJpEeICZnp/ncHcPs2epSWSW42Gm/8y/kRNi7o4cN+cNUynWCMCRR62Y19BBJN/W4wNlxy1M/L/Piy3Wu3ZLj4XsHuGEz5LQ1NcyzGvGiuggF4L5bejh2ZpY3jowxUSuRSBfHTlV57IdjcO9mPnMrdOWcABud56tTGClBqAlWLD3hLFt7C3TPS+dRBU3SAiGvqkujGXhveLhH6/Cn//A+47PbkRCKOsUde7r54ieEQiMv+GIucDO6ZSzs3Q7/+/+401nOaU1CFMOLv4SDRyP2HznHWLlERC9na8LYoTLjU6f5/V/fwO7+izgMz4rAi+piWNjWB//Nr3bzi3e7eewXZQ6esUQEnKqt5y+enmH/Bz18+ja442rIq8yt1HHFNogFawSMdWlXbrUP531t6QPqrZalk+UPq3WX89wM/NFjExyd2UAorkhj746A3/1inkZaqNDSd2E5wSqZ821oYaB1lpIK65duBW7LcXxyA//wHDz72iwJ3ajp5tC5gD97rML//NslCpc6Z9lzSfH20SIk6Y3blYMHb4Q//K0uvnDbDAPhGCUbYZISr7wzy//xd0f5sydqjMeQBDTuPRWIjevBmYW4IlwSOHahpeVZGkYhlzV6DqAWwF88XePtowphCWuU4fAoX/9sH+u7m3X7jdiUWFduulTElZ2e728LtFnce7ypH37rC/DZO4vkqCPWEtuAA8emefa1aWr+TV/VeFE9Hy03zKYS/M7nB/ivv7yB23cmdJtxYpNnOlnPD16Y4N/9xWn2fQBTqSUK2c3sPKjGBIi4rILFjKRO3mNZSnqW6L7SWewcFFex9H9+c4x9b9eIkl6CuML2wTL/4jd2s3PEWbLzr3W79fbZoHdeYZ3//HTANBb6BB68PWDzoCDEWAmJKPDm+2NusPV33qrFT/8XIWid2uGme33A/VfDno09/OxAD99+fpaxKaXKMK+eFI7+wxQPXB/ytYe66M6RVtgkKBZr7aLx3qz0FeiIAqpbl7q5PPVKXlG10TCFOQn+4Lp/feunCT8/1IUkBQKJ2dBT5bc/N+S66yuYRRpBS5uZ/627t6IYKw3rd7EKuOaWLaFVNvYF7FyvHB9PsJpH1TBdNiTLdkN4VgJeVD+MllZxai2D3YbP3ArXbu3mb54+wxtHylRZT7nezROvzPLau6N8+aFhZpLMMtJmY+RF7iOfAH4esml7a2APmKnD3/4cfvzaNAkDWIENxUm+9MAIN+127gFnpetFN5Rxlqo6l0FLSfHCXgTN57tDd2ZoMYBiLnJZzAKxFlEttDzbi+pqxItqG4gYcuJ8etdugH/9T9bz41fgRy+Nc/iMoWZ6ODZl+c+PjVHqG0KlmBal2kZzJc+HM6dBCc1p+FgNvvVT5YmXxqkmveQkYbhnlq/cP8Knb21prShNYesMxlmoLcK62Mxi/ts7XYOZah6bFjmLEUpp+z9V3/xvteI9O20i6kQ1p9Cv8IVb4d/+7iB37inSFUySqGW0NsTxs2DJpyXiqaiuCi/nJUDm2XHGBf6e3w+PvzJDRfsQUcL4FL/xUB+fvw2KFuQjcHcYERILNQuzBmZYgo9VXeDyzDQcOhUTk3PdqqIyG4ZCAlglbRk9i+FFtS1sw6cG7qbPK6zPw7/5SoHff3SIPZsiimE9TZUSRGxLUYC/kZZC6/Io4Grsn3wJ/uHJUaKoG2xIf36a3/21LTz4MQhiUheLNMatpQaXPowYwMCbh5Q//PdjfPNHcOD0hV+TGDg1Dd/5ccSR2RKJCTAofSW442NDbnrox9dVi5/+t4U0ms7PwUJe4OPXwtWbe/jFS1Ue33eUiagLsWVuvXYLob+JlkUCvH0Uvv2j44xHQyTiuiz0DAxzbBz+8ic02u41mpSkgtoaTDKB8unbhXUlCJa4pIoo5ARqCuemKozOKD/4xTgvvpHwsasGuee2gO2bnNtB089F3cKrB+GZ52c5eFIJJEdgLXkd5RPXDbJ7Y3PASJsAduhKea4UvKi2xQXsTYU8Lv3qy/cU2bVzGy8fmGXLpmFuvx4CQ9vrI3lcru/hUzGTtQIRxXQNBuX42YhTZyLseWVJCTWryFCs1ghtni/f399e5X2SEEhATykkkIRK3MPRyZDTr1l+/PJZNgwJg/1CLjREdcvYVJ2zM4aaHSaSAgYo6AQ3bIUvPxCSU5C0EsEL6urEi2qnSRf5+9g2+Ni2kmtJJ2kOo6+kaYusespqiE0iEBdJtxJgyaHksLK4NIkqKglGDa43WEIUxW7xv6UfAYgSArdfn+fG1wd56/0Kdc0TE1A3G5maBJ1K33ZrCQPTyPbIAmy3XtvFV+8tsq0HrCSoynkzCDwrHy+qF828JMqWnzV1WTfSprygtoWk1v/O4Sqbc+8zUz+dCqltpKvFRlOf9XyRUpQEwWDUkAsMV2+5hnxbM4Zmln7Rwn/31RwvH8jxgx8f5si5HJWkgJhuVAoYk4Ak2DgmCAxdMs1IV5mHH7yKe24sUsq2poK5qD4EnisdL6odYV7O4XmsJ0/7BMAde4vcsPdut5yNNoNQSrPlwkJJbY5hBsBCl1l+ZDYA+g3csxduuXYnh0/DsTMwMaHUa0oUO1Ht7ekiHxo2r+vixmugSyDUbALjR9W1gBfVNmhE/RfcG7Lo9wuF1Sd8L4WsXt+0WPglXDDI9S9JEDWpK8CeZyotc+YQLoMpcRtb5sderFIwQiGEgS1w8xbXTVesAMWmusfN4yZzYdD0pfrPwerGi+oSaS7trs4SnSOs0mjaIYuUR7Y+76NkzvLUZuUuUb1g0Ep/zs7GtCw0bS5ge86RL2WZ7f9al6GWOcey4Opm5nHrbrJqukZBwsp8TzxLx4tqW6RrZy4yi8umpHMWAvQGybK54GVrHbQ+ZEYtF/hp2Wh7W2pWYHm30FrAe8yXSGaZzJ9qqghqmLNM9fwmKd6T5vGsHbyoLhWdJ6ipg0/ShHOjEIjzm2Uiamm611zX6sh3UPF4VjleVJeDAIFQtvDLw3Ci3DL9V+fJKwOvH4Mj02mzajVAeAF/q8fjWQ14n+oyUJzh+cTzM3z32UMUuwf4/a/sYO/2NBqM5aevxvz19/dDvo9//sgW7tgTEnpB9XhWPd5SXRZKIpYPJgqck10cq2zkxf3T1Fsiw6emc4yZHRyPNvHCwWmqi4aLPR7PasOL6iVA1UesPJ61ghfVDpCtXDJfMzPjVFfysiYej6ctvE+1A2j6rxWX8N3sRORn/h7P2sBbqh1jsS4dab9/b6l6PGsGL6rLQJRGZ6TFl0lxZauq6h7NAtePGG3uc4UvpurxrFS8qC4T5y/NasFbeyLR0iggE9RL0/tvjojqvGPyeDyXBC+qHWMxAfOeVI9nreFF9SNC0iWNAxN4afV41hBeVD0ej6eDeFG9aNqwQ72L0+NZ9XhRbQdxa3kCJAIJBtvo+RfM7U2cdnwPFHJWCdvswenxeFYmXlTbQVs6zmvrgh0wJ8LfWMdDsQKJCFZAfds/j2fV40V1mTh5VWj0T7VzJFbSlKpMVJMsy8qbqx7PqsaL6hJRwS2NLOmiQ8aQpOtVzV1MXlI3AWAFm1jCbFlkK96v6vGscnzt/xJZMNVPYOugpVePE+YKXLd1I7mW5TvXDVj6ghMk0s8Nu9aRA4zxZqrHs9rxorpUVNLFNBXFrVT62U/m2bx+D+vWwY5etzY8uOUB77lZGBy4jq5uuHoEJ7iX0kpd4fqtqFsNVhUVaayMmq2lKJqV/l78YnraXJkPUVna4gxzAo/ZD52aiaRnmW5O1U1yEpodJrIOaAbn3/frtF45eFFtB5U5t3C/wt27Fj5NVOhT+MS29BeL9Vr5CJizRDUrd4lqhwUJQAWLE4xEXaxQLOREgARVN5Qt60xTpY5TDQvS69VSZXzeDaumN4+mx2oMqp2QeNczQsSJqgXGp+HgB1VGy4aJSkIUGwKE3mKennzCxgHl+l2hczORHo/37F02vKh6rkhEAlThXA3+/TdmOH5unARBNGHH5h5+7b5hbt4eNEWvHQuxVSwNnJyAP/7WYY6cyxOqwYoiKgQqJCZe0NbRhSctQRzxuTuG+fqDgwR0xlLU1F9ftzCj8K0n6rz89ihTlZB6YkjUIkEOa4UgiEAsgS1z1bqY3/n8FvZsAVHDih5PVzheVD1XJgpnq/B/ffMUb50YJg63EVvFaEL5ZJW7J0C2sUwlS1VVnfU7PgMfjBY5E20i0NTOS6fUyaLbV5CEHHDw+CgzZaW/9yJUrOWlkYU4gBfehe8+e5qjZw11GSIweZQYoQ6JxRJQi0NiE2Lo5tCZMxwdg2u2+Jv6cuOvv+eKRIEf/RLeOBkSESAoaiOsERIKQKpFbfsw51ZhGDK/pXEWqCgBEUZiBIsQMl+5BUugMSD093ZRLEjT+l2uT1VALUQGnn0N/urpMpPVERJVctQI42l2bBpg0/pu8jnnBjk7Dqcn6oyOVchJTJIumd7wl3guC15UPVcMWYDIAkfH4LlXxqgzjCIUgwRNEmIKqERpzq9iUy/mUusqNJ0XSxr1EpxVGmDJqbOEP3N7nr58HaMWobaIPikhCZFN+Njufgo50ATkItyYmvrd3z4C33zyLJOVASxCUWe4ZVuORx8cYdcWyAfNc3VL+OR550ie/QfL7BpK/xbgU/cuI15UPZedTEyzSHdi4Icvw7GJHElSZ+OgZWSkxP5DiXtWywva9R3OF1+VbHPNePoX74EtPT0NK3bBNtLtqDQzPiQLvy9HzNLq5/EEnnp+iulaH5gc3fYcn7lzhEc+Cev7XcnznONP93f9drhu+yYAzMVYy56O4EXVc1nRlu9EhAhnrT354jgV20sxnOEzdw5wbBRCI0QKgmms/NV+5W9LbpsYV5Mx56+GgkLXUrY7/znLEbPsUAQOHIc3D1eJbQ8qlht35Pn6p2EgTC3Z8whmQFPcvaBefnzehefyItnyNEqSJJwrwzefOEPdFsiHypZByz1XQ8GCaCdy07LsziuARtKte3z/RxPMJj1ICH3dMQ8/2EdPmC7L432kK4Yr5NPlWas0/INiiIKAZ1+1HDgXEktAUc7w6KeG2DoAVuvEmnR475cogfhDiIEDp+DQySp1csAsN21Rdq2H0Lple4y3QFcMXlQ9VwQKnJiC5984SyUpYiThrr39fGIPGBIQi+2otXa+ErdLr16xwBuHqtTpgiCH0TrXbhK6g7nP803OVgbep9oGKi0fbJl7Wy7n896Y+a3hmyWRZmrU934CJ8YL5FE29oV8/uNdFFWxaUhbtCXZv1PM2V4WCZpTgNp8amuhgcz7ukwScaJ6alRJNCSJLCWjXLMtT5jtL91H47MmLYfu+/RecXhRXSKa1l6LuAirVagCZ8vw0n448G4VckUmpmap1SoIZtFPu0UIDBRNnc/cvYFP7oGuDkVsm8tTK2rd1yuFRunnvNrPQF1u5k/fgB+/tEus5gAAIABJREFUdIIoWEchmebhG/NcPUIakgoQTVIR6ZSEWBBXAqsCQh1DHSUgMYaZBIKcKw5ILBQDd6xBlgva2oigeZbzf3FhxG1zaho+GAMkRz4wFLBcl5Y41wVmLdQUgrTbWZJmHeRxn53QAEn7mRCejwYvqm2iQF3dVPUHP53hlQMTjFcKxPSQEBHbkDDoBcyCT7nLKzSgllBmqT83ynVbhil1u7+vqXuiJUhzdhqefrVCZAYIJWbHesP9d+TIu34qOK9iq9nWoZ2rNDanaR8yBb77HCSzMyQqxAhCxFBfgU3DRXq7YOt62DwApQXOs2Xkd6lQq0M5MkSJxQh09Q9xpgrvH4V3jsUcODLF2OQ05ZkqhoCEgN6eAgPdhpuv3ciNu2H3pjRjoXUq5bkseFFtA0kbXEzW4S8fn+bFAxGRbAQRV6sOGAOIJU50QTZ4Jg0WQz3JMRMJiV1rH3+Z8yUSeOUgvHEsgDBHf26U33xkhK6u9DlWW0zDTpBJp0ssNZqt4hCC5FBRnnpFsUmX66FrhECL5I0hSRLyQZWNfTXu3lvikftKlEyaztSmkepe4j4PUQy1yJWeqsJsFPAf/maCY+eUqXoXke0hNF0QKEZyJAlMl0NO1WD/c/Dj10b51XuG+fytqWUvtoMWvaddvKi2QaJuOvbTV+CVd0LisJs4tuRECaROGCqIRTUkHwrCwmi1TVN68sRcs9HSU7j053H5yVwThqMz8N3nzhIxTGjr3Lo7z971afmohaZSxbDI9Wybhl/UpfYbdzhOXK1rpuK6kbmSVUm7ZVUTSCQg0iLvjQsnf668/v40//wrvezoTcfPNnQ/c4dk4waEIIqKMlWOeWs2xKohMMpAyZIPI/KBEkjMdM1QrltqcR4bwtGpPv72R6fp7t3AJ3ZDmAgmuPD+PR8dXlTbQAQmqvDUzw8Ty06SJGGkNMPtVwV87PpeCmFL/GKRAIKrLXc3cEgf2zdCb6HZZm7t2BaCqhDV4dtP1Dk9WUQCWF8a46G7NlFaIAiKECB0QCm08V92KGzuh4duKXButowFrt3ZRS50lf+1BA59UObkaI0jZ2uUowKYbuoacOB0xP/zrQn+xZcH2NpP28Z0ZjPHCdQjiwQhVsGIUAxqbBtMuHXPOnZvFUpdJQp594LJMrx7FJ547jhn4y0Q5Bir9fD4izVu3lWgP5TOGfaetvGi2gaisP8QnJspEAsUZYpH7hnkS3dC3qRlhDhrY37vVWh+zoWmu3UZs8YVTxZgf/N92H+kig16CSlzz4097NrorNRGBqmAYkED95Cm73MxUhfsEjIq1EUcFdb1wq9/eog4/UtBmo1WECjf3EVVuzh6Dv7mH8/x3skJ6maYWVvkzeMVvvuzOr/3mTzFNjU/O8TEQq0eIZJDLEgyy8OfGubzd8FAzn22wJKoG4x0CK7fCpuHt/Cfvj3FdNxFVQu89UGZtw8XuGO3v7EvJz5PdYmIukTsyWmoSxEC5Zp1Ezz8Seg2uGYcqVpaMWDcSgGtD5M+WuNXciGFWEVIS926KFRi+NbLcGo2h5iInRuL/NqneymmBU9ZVB5J0lVohUwqLNniNstJ3nfZBKQdoLPjKgLd6SOnaaQfN0j2KqxXuGVE+e9/c4S79xoitURYZqSH5/ZXGK8tzzkhpJ+LIBsJIraOGH7jXlifdxF+rAXr+ruGQC49zo/vgbv29FAwdYwJES3y6v4x6mttlL7C8KLaDo3yH3fZRkaG0RbzU9M5/4LGFx6gaZHXA3jmJXj7aBkrOXpzUzxyT0AB1+0JbV5DxbhOVBJhqM8pMs06TjUu9Zyk0vbfgCxvuHUTgdW0PFYJEmc5PvzACENdCTkSDAHlquX1A9Xz9F698P4UCEIo5AW1FpGQOJnfGGX+kTWLbW+82pAzERaIxXDi9MwVUie2dvGzhKWSmpTFnJCjQl17ODtepRL30ZeGf5sfe28qnA9RODsLP/jZYersJFHLuvUjlHrhvTHnb04Ns0bTFCVgIgqwEqV/V05PC/vPumeEAhv7oPcj+TS3pHIZZyUOFGHn+gJT79eoa0hCyIlzVRItLn2r2lxXyhjIGdy6W2KYrdRpxOgyH8QiGKC/G/JhgiauwfXETETiVfWy4kV1iShu3n791dCbn6WcjHD0TJ3XD8DIdRAYk4ar16KXdCk4s0sQ3ngXRmtDjbzdo+fgP/5txSW3qwEJiQQMlkAgSAyjEdSkQGCVKFEef8Hyk1cssQh9dpwv37eOz9ySpL5Xt6fOII3yWKNu7aeuHGzqh7eoE0sRkRwTM3U3gWlD0LIjzAVQDEOMQKSWaj1hpgxDS9DoXNDssWpFmC5X5jmlPZcaL6rtoLCuH667qoex9w3VeIgf/vwcV20cYdsI5NX4ruvnpRmRrtYgQQlw5trMTEyFECvWVYMRp0OTTT2gAVEuQCRMY0vCTNVSqRqsCLMacGQsIUmr2DrdfKR1eyoWKy7VCWKEBBvXURMvwzXuzjIXQi6w2BgQxWrCu0di7tgTYjT1LZ8nm6SeQJI4S9cqDI/0EHtBvax4UV0ikv4XAA/dt4E3T8HUTIHD5+r85VOzfOXT3WwbdiWDS2n8EZAGROic/zULgLl42UI/3GUnPZwNgzAYHmO2XsLGrmrKpIUSjSKnhpI4NZlOhrFBD2mxKnkmyNtJFOgOZhnuKiJ0LeJ9nEu2HHX6heYc2y2FrWQdoZTmqqQuMCZiEFXqERyfBKt5rIVcELB+sNR+wpcKaqCnB0b66hw+F1CzOazmODkWkxBicIsQzskdyTJHFCZrUI3cJElE6SuJyxbwwnrZ8KK6VNJZ/dgEPP3sSYQNqApVGeCF96ocO3maresKGGouBeg8iT9ZTVVOq3z8hs3cfXMXuY4dZLosdbZkyJWkqaKpTAk37ob/5Q9uoMbcAcW0HK9JRcHZg/CXT8GL+2vEEpLLGX71gSHu3jsEuF6r63poEUMXxFp8sErfF13kd8z1jKfdHhoBMae/wmwN3jujxBQxJsDGdbav7yNYxuCoWIqhYetwwkvv1BBTRE2BI6NCDchJdqzpBzD9YhPQEF4/pNQ0QEUJsVy7dYicD5JeVryotoPCiwfgxfdyTIsSEGATQIqcmg05WxGs9pJIJh8LP91B2nUpoM7pinLN1bCp2yKrPBEjq603JHRJQKkrtQMXEX4BTJqfpOLcpOu6EnJaxtoeQhuzrlhgR29aSOHGqfT5LVd9kXxVZ/VJ0/8tiqZWsqg0lndyOmpATboNp2Y1A8/sqzA9UcSKEEjMtnXd3Hl9QNiWdaggCcaGFAX2bBsk/8IoNYRICuw7nPCpM3DDeoORlhEGBREkgONn4NUDEVXtxojSV4AHbutl6eEyz0fB6r6TPwJiCwk5VFwbOpO6UWsmpEJARECsIYnmibWw4JFojkSLJLZILTLuHjFr420QQNRgcG6PMP0a6NyHAQgsGItgMdZi48gJc5BruABy6h7iGk41WjM26vkvZKmKITYBT740wZ88PsOhccOsCom4WJkT57DxitgIozF86+fwxIsTJMZ1G+s2kzx4e94dR9tXxIBYDHDtdtgyAjmpYSXPRDng8RcixsGJvroGPYkIdeDdMfi/vzPGZNUgaijqFLfuEoZ62j4IT4fxlupSEVBVtowIfXKafFgnUBdFSDBEohi0JaixWG6hEpCgGAKN2L2+n+482SxzlZNNsVsrH1i88EEVm4qNK6o3qaUr6UvMwsulLk94fhXbQpp/rwD73pnm1cM9PP/6BHt3dPHJO4bZOAyFXLNoI7Jwehwee+Ycbx+DmXiEWKCQTHHNdssnrl9OcCz9fEgCmtCTD/iV+4f542+dpKIlojjPz355jsp0nkfv72P9EJgAqjHsPwzfe/YMR8e7iIOQvKkzUpjls3cO+Bv6CsC/B0tE0/LT23YLf/DoJqqmO+1OJCQqWHEZ20uZxguQ04RrNwX0p/Xcqx+Liov50xrSWaykNC0TJbPQNBNSJVTFaJBuMe2lQBZKaop2lud63iBgury1hgEV7aISjXDqIDz1HvTloa/k8j9rNmCqBtOzlkBG3F4CyKnl+p3Cb35hHRuL6X7aaKrS7C/rzsUAd10Nr+7t48m3E1QDIkZ48T3LmyeUrm4hF0BUh7GqpVYbxhBgBbryZb7wwBau3wwiNu09sTZmP1ciXlSXiKRh6VDglut6W5LTmzdHOxmqQkDYEtBd/ZimP7OFRU9dBVqm3mIhLxHG1kmw5CQitMVGrwW3oYXbvWBWhQolgdt29vDmwWNUZCs10wXAbA1mawlirPOZa0CQrrwqEjHIKJ/aXeRLvzLAUG8zqNbO4DhngYH0a8nAVx/splI+zavv5anTi5WQmapltm5BY0BRkycXGkKdYUvPDI9+eiN3XeesZfUevcuOF9U2kLQlXNYuzrN0FhPUC+NURwACePCOLmxcpRrX6CkKO9enm0sT8l0eZ0tN24e+P0oO4aG7BhlaN8grByLeOTbGZDmhVlOiOMYmCUkSUgwNhdDS31dix5Yebr5qIw9c44xocxGpSwuDaLClD/7wNzbw5D7Y99YopyYianFAve5KdAOB7nzAQH/I1dv7uPemjezYCIX0kq2pcfoKxYuq58pDFEjSHguCFeHadbD74SEkABJ1ganUJfOhVmkL2bQ7C2TlgTt3Wm7dkWN8dojRClTrUKvjUpeMq1gqGVfhNNLnZiuuf6o20qw6hbHQbS2Pftzw8euHOTMDMzUXEBXr4nd9RRjshf7eZoNswbk8fD3f5ceLqufKI53+a5qalvlQjVHQBBH3s3PJpB2nlr5xVNT5aBWwioiQU1jfDX29NOvyda5QhdoSfkwtY9W0kXUnp93iUkpGepx4Bi3WcBbbE8iW2WqUKczzJnguE15UPVcwrkgVEqwEafQ/i/xnyfqaPnPpUuKs2kyG0iTXtGTOpXllVUxuN43a/0WP8KOrXAtRAivzF3ht0CqmV2D93JrFi6rnCiSVi9RCRWzWKQAwjSl/WlzanqDSyA+guTijpsVK2pLf2tymcY6Gxk+Lb1g75wZoREAvfGbZ4CLIIgOF53LhRXUVcSUvUd0ezkJtSIOGjcorN/WWxvciQTM6sxQaAbNWcQwafslFS3sXWcVh8e1+RFxg00FWugr4Wp4rAy+qnhXA+er46XwWxkobh1ba8a4B/NDm8Xg8HcSLqsfj8XQQL6oej8fTQbyoejweTwfxourxeDwdxIuqx+PxdBAvqh6Px9NBvKh6PB5PB/Gi6vF4PB3Ei+oqQkQWPDwez6XFi+pqxeupx3NZ8KLq8Xg8HcSLqsfj8XQQL6oej8fTQXzrP8+KIGtXutS1qM73+ovZRieY28R/fkt/BWmsD9tYtmUlrDu14Pq2tHldeL0XLk+oiy1VvkLxlqqnM4id+/2CR5t3zJynWyyur/1yjyl7vbb+LXs0djjvGDt1k6ebVtKFBxtqmTR3m3buVzQ9TttYb2CRI7u4A1n0p5ZftrtVYcH703rcc/t3z3sntPnbj7LP96XEW6qej4DFFlS6mDvGYJZjrrXsM1C3gaZmzFlCL/2atPwuW2qlA7SsWtAcW7JFC1sxbhl0wa3FNVd3OncgS3rK0i+4W0shXdZG3WslWxhx0a1kq+S671aLmGZ4UfV0gPkWXgfukuz+bC4hddHqokAMJJJtuKl2oUJAABKnUqAkSGNV1Yvec7qUtRWw6iyzRJrLBjqZcfsz85e7yvS/w5z/XdL29qk0lmN0PwqJLBiiUreAGyCz8So7z85c5ysDL6qeiye7G1ru0mydLDEXFlg5jwDHqaGYrnUK0BCcpR6TaoIQuDs3EI6OwvunLBNVQ70GSZK45anzhpGuhB3rAzatCwkEUCXo2E2eLjUoMFmDg0fg7BRMRyAJBMT0FBP6eoU9W/KMdLUYydrGOX8I2jpAtYpm60XO/tjmPq3i1hETmKzCgWPuHGsxaBJjxFIsBPT3B+zZCCOlOBtCsi2wWhYt9KLquXjUNL68+QH8p8dOkmiAVTvvFll4p7opo8z7ndLfleefPTzEtRudZidt3+eCYqghzCr8f9+xvPH+WaaqkNgQ1cQdnwiByZHTiO58zN7dQ/zWF0sMFQSTJIiZP0VvnxioCTz9Ijz90ihjkzGRDamjTo3UEkhCMR8w3JPwqds387nbIC9OXBWbrph68YLTOrtPgFmFx/fBz186STWC3u6Q/+l31zEQtmk5Cswo/OQVePrVUU6NVkjIkVjBxglGIBcGqCrrepV7bl7HI/cYCgpGbHaGq8Ja9aK6ytDsf73Ea8IZiBReO3CKw5MjxLrYR2sxUTWousCFYhBnW5KfjDg7CdesX7j26fm322J+qRCL4c2j8J+/c4wjkyPEsh6rllBiVOqAE81I81Q0ZLYO429XOH7qFL/5hY3cujPA2OW6clMfrsKRSfj2s7Ps219hVgdQEUQSoJIufx1Q1QLlesjEaJnjTxzhzOg6Hn2gxGARwuXEk7Mls1uWzm49j6rAkVH41jPTvHCwTF2GUckTlCNmI+gPL3zejU3jLPDRGnz3x3We2jfKrBlEbY+baUiCGHeOs5HBmJDyRMTZn4xyeryfrz5UYKTbtCwNvvLxorqKUFVQxX1x31+S/QokVrFG6B/oJbQVjOSX9tpEEQOJJCR0YRCMghVDmGvxyX3oqWTPzIYV4cQk/Pn3xzg4uRUEiiHkpcqWkSLDIwXCECoVOHN6hpMTNWLpJZYe3h4t8Y2nJlj/1QG29i5DVHEWpgVGJ+GPvz3DWycCIkbImQRDhY0jRbZv6KcgMFOBQ8crTJWFSLqZli6++2pCoWT5+gOGsN20B8ni7i15aCqNgTYGfrgPnnqlwuFz3ViKWNzFFs2lQaYlnKMBLNQVvvFsxHOvlanKJiAmLzHdBcvgQI7uQo7Jcsyxc7MkmseaAjOs54k3QWWGf/ZIDz22xdG6wvGi6rko0nuV0Ligy/23d3N6fBwlWtLrhYAoEapJgWdfnyXWXgQYKNbpzpUwjUTNJd5w6XPrAn/1RJWjo4JonXxouHroLL/9yCau3ug++BZIFGq1Hp58Gb773Gkmkw1IEPDB6ZinX7L89oNmyT5N2xLlt5pQlpBv74s4eDIikRJGq/Tmpvj6p9bz0O3O+s4BEXB2ssRfPznDvndmmNVBIjU8+fxxbr52CzdsbDOQoy2+SZVGGpcKHB2Dv3k64Rf7z5HIAKIGI9aF5lpc40vaVyqoT75oeeqlCawZwVhLbyHhvhssX/tiF6XULx7ZkPdP9fPXPxzl3dN1ynEvFvjxL6e5ensPn7tBCVaBPxW8qHouEmkxEA3QE8Bvfm6wjQ1A3cIz+8BoGREIibhqXZWNQ6X0SUtJ70mnyGKwwIkxePXQNHX6CU3Ehu6E3/nVTVyzHgqaxfWdVvcU4ZG7BZENfONHdRKbp65dvP7eLPbB3iWfiqKoQGgFlZATY/CztyvU6EGBLlPmn352PfffBDnrRN1gKYqwpV/4vUd7qP19heffqWGlwHjcy/d+MsV1X+tbkvW4+DFBYqGcwAv74ckXJjh0Kkcsw4SmTm+xTKG7ixPnYmING4PkkjBw5Cw8/coYsfaCCnmd4Et3DfL5e6BfmlkbReCGTfCvvjrMnzxW5fl3ZsB0U2aQn78+xZ27+hjuWg1hKp/87+kA2WxT1OXSd2sbDyCqwFvvRigB1lqMLXPX3h76u2ApHtXWW9FaiBUOvFemqkViQkKJuHFnFzuGcYERmqlMmYnWA9x/Mwz15gnEolJgspZrv+CA1B0CvHMERqs9qMkRaI3rtvXw4A1QtM3ps2RpVQpDIdx/a4nucJZAoG56ePdUmcPH6sv2j0t6+V5/p8JffP8Yb5/qpq45ijrDno0J//K/6GLHZjBad0GxNlQtAg6dgsPjJcTkCCViy3DCl+6G/iD9XLRUBQRq2ViCL95bpChT7jqZIh+cqnNiYhnFHVcoXlQ9HaXdAHVk4Z1T8MuTllhKhAaG+0Pu3JsjmF+ic15pSe9esUiaQTU9HaNiCUQpYNk4IPSm+ahGTZrMo2malkEtBAHkCkqCxWLQNidyBiFQsBJTAV568yyxgsbQKzM8en+enDSrjKQlqm9QjMJ122HnUAWhjiaWStVwfCKf5tYuj8jC2dk803EBQmHjUMyv3xvyb3+jl48NQsEASMPDIo1rugjZAApUEnjtQIW6doMJKDDKrzwwQlcuFfP0/VPjXCOays01m2HvtpBEAtTWKdeVD856UfV4FuXC977O/V4sZQPPvzFLNQpQEQqM8dDt3fSVWuJsDbPyQ5RF3RRcBAKJKWiOQAJiQiYrAVFje2kQL3MkpnNrBeJIEFGM1MiFUZsWYlpYqoJVGB+vINZgBPp6cgz1ud0Zhby6HN2mwLrD6CvAnu39AJggpB7nOTd7cYITBIDW6ZNjfGpvjT94tIuHH+iht+iOJbGAJI3i0Quec/peiAIBHD81leYTKxt6Eu64tuV9M3PzMrJv8sCd128ghyU0BhuUeOVgTCygYlHROX7glYYXVU9HOX+Aw5LWM9Fa+/3OCXhl/xjWCkmcsGVIuPdmCABjmlbdh97sZGlDihHYvmUAk0RgISbPG+/NcnqatC7SMmf+r5ZI4PQETEzWASGUCttGZFk3iCCIganpCgYXDAuC1E5rTepP3RDuZ/ddDrhqUw+CYi1YKfLOkZgoWcaBAKizgPfuLPGvfutWfu/hbm7aCsWssCITL5L0sHRpAxgwU4fxqTqiYBPLtg3ddAWplbpIAkK22ZzAzXuFQGPUWmqxcHqinlqzkj4ucUpgB/Gi6rk0SGYRJs7xKoKq4Sf7EmaSdYgx5IywZ3s/IwUIpKl72Q15/ts8M2lc7XyosPdqw4YNBYzExLbAkbEcjz0XMVoFCLAIsTiZh4DjY/Anf3+ayBoSa+jNxTx0S5F2Uv9FG4Wm7sZSwap1tRFinZ7DXKGZl59pgOuuAYjSQSXPWDkkXrbCCCHKnnVw23YYMG5/RiOsRETLUYBU8V7+JcRadJVU1rBh3QChYc4IOP/8MoIA+nryrjRXCpQrLSVdK1VNU7yoei4NKqABaAgaECO8eRxePzRKTAE0ZiB/lpuuCckHtBUGViEr6iK7KQvAl+4pUrJnCY0Q2xxPvjzFHz9W54NZiFQwGBICPpiBP31siiMT3SQIBUb5xHVF7tjJXL/uEsgGgMRCPmcIxFXFV+tCLWmZzp7n/EShrwSlMASFSJVqcpH+xnlzaItiySHk2i/Fbek4dvi0pS4F4jghDIV1A85nfeFjaXpcerpARLEETJWTxgAmK1yVfErVauWKS6TOTBgnD7VEeO0ITNdyKILBcs1G5fpdMKcWHVjEM8fcv7p5pkqzSCAA7tgN7948zLOvjlOVAWIzwAv7Jzk3nvDIvevYOAznJuDvnjrB0fEuoiRPd36Ku/cU+bUHeskpyzI7RJ2vsK+vxKlxJzTVqjBRBvsh2WaZR6KrVGQmBlWhUm+vjuPDes9m+xCW8TFRAIuagPGZGlZyaRaDUghlSTm9AoQGDAmilgTBasiZMdg6QMvbfOH3/UrFi+oq5bJ/DFt8h81CJxfhUA2oW3jhrbqbPpIQEPGFezfTHYBNXD14iwPggrsyaYDItiigAIMF+LVP5enqyvPEvllmIiE2fRw8G/BHfz/NYF83s5U6Y/V15IyhJ5jgkXuH+eLtMNSmtdzEDRwGw/BQF4xBoFCPc/zsJeWGLfL/t3emT1Jd5x1+zrm3t+mehdlYxLAJIRCyAMdakFWKC1tyyo4t20nF5ZQr26dUtv8lyadUxd9cqUpVIm+yY3mNLQsJRZaQEchCCAmZRQyzL73de8+bD+d29x0Y0ADNmJl6n6phhp6evuee7vu773m3Q85cK3it6XF4P6fDgVgCLPWmIDc5mBtl9mZ7CNz8StvfHJ1xLFQbOHoQ47BGyKfWdbvugIx/dcnxffOVSinApEUizlg++CBmS3+YcbmsTVFd44a2cjXtbal/b1tU+6i+tCLh6c8tHCEN4LVTcPGyIBTJmQb3bQnYM+aT4v2H0jfDW+kxDVeVsqYCNdoDXz8Cf//FMvdubBLaBMFQo8zFOctkvUhicgxXmvz1F4f4ymMwmE+XoDc5fT5abcBYisDhj20gNIsgQpMyL56Y5hcnYKF1v0gFqGW/1xN4bwb+/XsRC1XXmctWpsIKudVCgRUjhiCxJLHBGYuzIQnG+31N+ynt5tXLRfCN8X7V7C2zZiDOCLIVi5G1J1Fqqa5Tsobi7+XAGdrXmnipnIvgey+8T2S2kRhDgUWO/MEIxYBbHLDJ/Ns5qHFgAqjFUBmGvsEBZNKXMllrcemxLDDXCPjF8YhiPsehHdCbS31/3Cij4TrnKpbAwL33wL7NCafON2lSoGb7+Y8fjfPWuUH27Qh9BVEI1RpMz8G756ucvbjA5TlLxJDPDZCEXGBvepm+us1J/A18uUNeb52x7ONil8z3Wt1iRUVVWXWOnYAPq71ExFgJGO2HfVs6XtebN7BTs88kPhjWetTCYgw/fKnBc8fGWUiGcUlIQar0mEWCXMh8VYhlgIVmjtffb3Lm/AxPHyjwp0+VKAcrCLwsMxIASWCkAn/0cB9nf/c7ErOJiByTzSF+/ib86s0aOeaxGERCYsmTBGXE5Qis4BJDIkIgCT358O5aALeX9A5EyCyOrnnasqJolremW8UY/udOOl23+smuFiqqyuohsBDDybMJC80NBGFE3i1y6L5htm3I5ONzK36pNAUgvVIdMF3z3ZN+9kadiHtInDBSafLE3h4+dahCPoRXTzb56YmIC7OOyBSougLPvd5gpp7wl58JGOwh09SFbGbptSPIpkYZn+B/eC/UvzTGz16rcuaCoyoFcNCQEg1b8EJiLCIGkwgjlYR7txV57Sws1iG0AQWbNoC+mzAgLsGIdNJ9Sa37jxqr+DayyVW5t5XZAareAAANtElEQVRK0ElvvdMujDuIiqqyOhgfgDk7BW+fu4Kxm3DkKYfjPHqwD5dd6i0T3LghS7byxHdPcvCN70e8/l5EbPpwErF3eIavPj3K3q1Qyfk+AZ9/PM/B++G7Rxc4emqKeRkkIuTY6UWM5PnbPy5SDkzHdFrBMK7OO33iQdi3o4dTZ+Hl34wzNdtgZnaBxEEYGCo9BYYHShzYs4kH7i1S6oO3vgHVpkMkorc3vGuSObJxx97eXpj0/0mShCjyLpVgBWMVgWazM1EGYc92CE2r0YyKqrLKJAYm5prMRXmcgaaB6YbFEWDTLhqLrsC7k1BKrYfeIGKkP+ejq3fKEmgL49LwvwB14MevJszFBcQ4MJaHHxhkx2hHiG57TAIN4EfHarxy2tEwZayrs29Lk7/7k1E2laAYQBI5wtASGtg1Cn/zTIXhkQrPHZtiIepjMenlxVOzPPFgkY/v9pVONy32KWEcsbmSY/QhOPzQqO8H0Ho58ZVjedLSVQOTEczNTmPoI6DJ5kHfE+FuIJtmWykGhCYmSU3UZuR92Ij4Etzrph/4G1AthgTrO3tZoZDuNuCEdunuWkRFdS1ifIeg4+9N8a1XL9M0OcRYcOBsAcSnF/1uHv752bcJrcWaiCN7K3zh8W3pFhbc0ShW21pL160J8MEEvHJ6gUXTi7FCb1F48lCZsoBzgrVmJfWoH8n5GfjJm02atofEwUBugb96coAdfZ2AWRh0CtNFoGLgc4/B5YUSR48v0pB+Yvr57i/H2bd7lCBJsMGN66uuF1QJrG8AHUr2gmtlwdt21Sz4G88rJxtgQqxYijTZNeJLO++KSqPMamLjQEiORWoUCQ1cvLJIRJkCMd5Rcp28NONIjGWqJjRNSGihv6/QfulgDQsqaErVmkMMxM5fZI8f3MRQTw6aTYgF58Sn39D57PuEpoRyGPOJ/dvIt355py5Qc3UKje/A1AR+/uspag1LQEguXmTfphpjm1p+OHMbY1p6QpevwORc4LNFpcZQn2HPzhDjWPYYrUh0bwAP7ypRDG2aK2q4OJ1w/kO8oN7OnF0vNE5WQBLEwFvvjhM7wYmjWDBs7OOmymXvKJk7x+ZRkKQOQEKeyxM1n1YlOVJP9LIkzlJrQq1usQ7CuMbGvnTTmDXsS22horrGMOkS0TgIHXzyoe0Ug7iTF3oV4hwmrnJg2wCDPf7v76gl0K5/JxMKN5y7DMfPNMGUsA56bINH7y9QCkgrcro3hGoD6kkRwRKGMHbPELnUaJLr1XumujxYglwqHM5ATM43M+n6hKWBtcz9QCTgwgycvmTAFjAmor8ijKWbHy73/q4+nQ/PoQehJ5/2YQXGZ2Lq0K5kuDpP2qU5apGBl1+PiBMIjKVg6jywg6UNZ9YwKqprkNbGvjkDH9teZrgvh73O2tPiyLs6h/eMUM6BIQGJuaNryUwUX8T38/ztObhSH8QRYiVhoOR4ZG/QWdbe1nC8rSl40XRAQugfE6Far/sEe8fydeXGi7oFn8OKS92nQmDcnXOVZANzxm9N8tJv4MJcP4nkybHI/t2D9PW0nvL7VxzJfIUCIwPehhaTMDEPb7wD6dR3SM/PpN+rDn596rLfxlwcpVzE/VvXdnAqi4rqGqRVrRIAGytwcPd28i5e9sIPJOLgvp1s31JKPVy3lrC08rEJzkQY49o7AdQNvHziInXy+IDvHI9+fCMDhUwOYheG1MpxLeWhEDQwCLGEfPDhLNNVHwC5kTg2E98LoOESL6gkDPU02TzMjf/wZmkpR/acBU5/CEePTyJUcBi29ju+ciTwYnOXqE27x2maP3rf7i1pUUdATB8/fWGC+Rp+sl3S8a2IvylIIrzyJrw3mccZQ4JhdLDAlv61l496PVRU1yB+O1/xjTsEHntggM2VmFbEw+GInd/XfmNZePrhzb7jvQMjIXfSJjCtAEVaXigGXjwJ567kkMiPYWwg4qmHffrMkiSB28QCIo5KCSrBJIFpgrVM13L8z6+hauF6sZPIwFQMvzjlqMYljDFYF7Fna4FynuVrLa85eek0WMaRWJg3PvgUt1zGqchI2jEmAmYcPH8S/vW/x7m0UAQclaDOU4+NUDG3LqjZUtEYqAGLma8FA1V8vYQzIb7DgKMKLFj/+wXjy0cb1/jKoWTg4C4Yyc+RF0fsCrx7WXj+uLCARVqFGOLHEFl4Z9bw41cmSYJ+jEDZTnLo/n429q8fMdLo/5qkE3ExJIz2BDxxYCcf/OockQswNiAIIMSxf8cwm4pp7uBqWAIC2dbOVQfP/XKCajJA3oKVhMf2j7KxlJ5Gp4j19g4KgMFYy55tsGeLMHFmkcSUaYQVvn10ismpHF/9XK9v0Gy9a6LlqjhzEf7rJ5O8eakHbA/WxQxVmnz68Aj5tvB30sOWG3E2RGiM4f1Ljn979m0GyiWefGwHe3elF1wAsfMlmZem4QcvzvN/79SoJgOICbDRDB+/r8wjD/heCEKCuYVmBO1xWrh4BZ4/doGFqLjkOTElzowXSJwFKxgM//lDR1Gm0+CYQxxUchFf/8IW/x6mLx5aeGAMHhqLeflMjYQydTbwrV9OMb/Qz+efDP3zjc8bfukN+N7R81xZLNPEkrMNdg4u8tnHhwnvluyGLqCiumaxqUUkBAIP7hpk7LfjnJuo4yQHLmKwx3FwzxiFAJ/TZNK06m7o2AqIDLz8luPSDESEBBIxUErYf2/g2+oZVmYBfhTGR5IcATZxlAPLV/7wHt6fc5yfAhFLjUGeP5lw9GzMxj5Lb6+vp48imJ9vMjEfshANEVmfLzqQa/DlJ/sZG/Yb1kniMDZEsoXp1xuOCIKlaQ0XG/dyctby0rMJlYKh0hOTy+UxBqpNmJiPaCY9WHpBhKKp8dD9/XztMyFDxVZg0t604GTdtYnA2xdifnoyZNYNLR0rqQ/Z5hHxvU1fegeMDPmPC5AglO0ku3fWOXygSF5aqwLIW3jmM4OcnqlzeRpcErIYD/GdV4WfnIS+HiEwMbWGYXLOkditvvBNqtwz0sPXjmxnwEIszveeXQfCqqK6ZpF2JgBAfwkO7Rzg8tR56pLDSsz+rf2MjRpa+zatdhig2oQ33pkFmyePkHcLHBpz7N7cspbSE7jtC8mvqa3gM+mBHZvgn75k+eb3x/ntJUPDbiB2jrmqoVqLcZdirE09zCYkSoQwDyZusKk0yZc/tYU/PODb9olYjPWm7Y3LVDO+jNSSK9pZQnpJKDJbh9m6wdDwYiYWCUJMElEIm/QwxdOPbuapRyyjFf8yzrTq4Vf+3rUFNaP/LokwSGt6lsxcKNbfc9NgXauzlEmrfgMHkiSISwiEdmNrk/48Ngj/+EyRb353kveu5Ki6Ck6E6UXH9EJCQIKxORwhkjhKdp4tvXP8xZEe9m/37izbKVBd8XnerRhJbqb9rXJ3cO1blhjD5QX4l2dfZaJmqeTgH545xPZhQyhuVVuotS6NxRh+/GqVE+/NIxIyWBI+e3iYXZtbF2a2Z+rtsPR1xDgEv8Qer8ELbwi/OTvDxHSDal2IonQZn2p6vpAjHwgbKiF7dmzgiUOwczitRJOrjpPpL3DDGRCYTwz/ewJefuMK47OGWmypRwmGxGdlhN5N01eCnZvLPLK/woH7oGw6FiZ+pN5XvcIrVcgY0umQT18QfnD0Igtxeclzvbj7lox+VuL2XlFgCCQBgb5SzJ99eoRNVwWUBJ96hoHz0/DCcXjt7RmmFxvUIyFJjF9DBEIuFIZ6i+zf1c+RR0K29pEJnpp2YcZaR0V1XZDmVVrDd16f5WfHTvCJj+3lzx8f9sts6J5+rWAk2c5Cgr+oW344Mhe7D6x1e1AOlwaLrPMNOxNgtuk39purQhRDkmaVGQu5vO8FMNoHG/tpb7Z6bR17qyr9BrTdGjFYQyKW6arhyixMV6GaCYiHeaiEMFyCewbSXU8NJOII0taE3mp0BGKwN+EqESC23sq0+LLmjyogyLoMXBrgCsWnomHai4D2dijQEW9DAvj5Pj8F4/Mwt+j9qbGBXAilEDb1wugA5AP/vgROEGOISTOx1oEaqaiuE8R4EZgHvv39ozz5ycNsH/T70K/23T/bB7Md8SZ9bElA4s4s97J+z5Z3Ibv98nLT0QoDWZaO/dZHl4at0j6j19v+uXXMIBVys0yUvTWSmxUcaacyZcTvBq+RFdWOWF41aEO7z2z2OCYdvEhHkJd73VaOtcF/XrObIa4HQQUV1fVDKh6RwMT0HAN9fRTDjIWoKMqqoKK6XmjnP3qc80vI269WUhTlZlBRXSe0kryXLMvoBCIURVkd1ksRg8K1/r9ViEspinIVmqe6TjCZgETLQl0vKSqKspZQUV1nrOW9fRRlPaDLf0VRlC6ioqooitJFVFQVRVG6iIqqoihKF1FRVRRF6SIqqoqiKF1ERVVRFKWLqKgqiqJ0ERVVRVGULqKiqiiK0kVUVBVFUbqIiqqiKEoXUVFVFEXpIiqqiqIoXURFVVEUpYuoqCqKonQRFVVFUZQuoqKqKIrSRVRUFUVRuoiKqqIoShdRUVUURekiKqqKoihdREVVURSli6ioKoqidBEVVUVRlC6ioqooitJFVFQVRVG6iIqqoihKF1FRVRRF6SIqqoqiKF1ERVVRFKWLqKgqiqJ0ERVVRVGULqKiqiiK0kVUVBVFUbqIiqqiKEoX+X8WiTCoI/ch8QAAAABJRU5ErkJggg==;" vertex="1" parent="1">
          <mxGeometry x="280" y="460" width="341" height="262" as="geometry" />
        </mxCell>
        <mxCell id="NEWfJnRq4Y2I6aakKRTM-3" value="&lt;font style=&quot;font-size: 24px;&quot;&gt;for (int i =1; i&amp;lt;=n; i++) // prints n rows&lt;br&gt;&lt;/font&gt;" style="text;html=1;align=center;verticalAlign=middle;resizable=0;points=[];autosize=1;strokeColor=none;fillColor=none;" vertex="1" parent="1">
          <mxGeometry x="-10" y="373" width="420" height="40" as="geometry" />
        </mxCell>
        <mxCell id="NEWfJnRq4Y2I6aakKRTM-4" value="&lt;span style=&quot;font-size: 24px;&quot;&gt;starting number of row is last number&lt;br&gt;of previous row + 1&lt;br&gt;&lt;/span&gt;" style="text;html=1;align=center;verticalAlign=middle;resizable=0;points=[];autosize=1;strokeColor=none;fillColor=none;" vertex="1" parent="1">
          <mxGeometry x="-100" y="460" width="420" height="70" as="geometry" />
        </mxCell>
        <mxCell id="NEWfJnRq4Y2I6aakKRTM-5" value="&lt;font style=&quot;font-size: 24px;&quot;&gt;in a row, the program prints&lt;br&gt;i numbers&lt;br&gt;&lt;/font&gt;" style="text;html=1;align=center;verticalAlign=middle;resizable=0;points=[];autosize=1;strokeColor=none;fillColor=none;" vertex="1" parent="1">
          <mxGeometry x="-85" y="578" width="310" height="70" as="geometry" />
        </mxCell>
        <mxCell id="NEWfJnRq4Y2I6aakKRTM-6" value="&lt;font style=&quot;font-size: 24px;&quot;&gt;the numbers it prints in a row&lt;br&gt;is starting number to&lt;br&gt;(starting number + (i-1))&amp;nbsp;&lt;br&gt;&lt;/font&gt;" style="text;html=1;align=center;verticalAlign=middle;resizable=0;points=[];autosize=1;strokeColor=none;fillColor=none;" vertex="1" parent="1">
          <mxGeometry x="-70" y="705" width="330" height="100" as="geometry" />
        </mxCell>
        <mxCell id="NEWfJnRq4Y2I6aakKRTM-8" value="&lt;font style=&quot;font-size: 24px;&quot;&gt;Text&lt;/font&gt;" style="text;html=1;align=center;verticalAlign=middle;resizable=0;points=[];autosize=1;strokeColor=none;fillColor=none;" vertex="1" parent="1">
          <mxGeometry x="125" y="903" width="70" height="40" as="geometry" />
        </mxCell>
        <mxCell id="NEWfJnRq4Y2I6aakKRTM-9" value="" style="endArrow=none;html=1;rounded=0;" edge="1" parent="1">
          <mxGeometry width="50" height="50" relative="1" as="geometry">
            <mxPoint x="410" y="670" as="sourcePoint" />
            <mxPoint x="460" y="490" as="targetPoint" />
          </mxGeometry>
        </mxCell>
        <mxCell id="NEWfJnRq4Y2I6aakKRTM-10" value="" style="endArrow=none;html=1;rounded=0;" edge="1" parent="1">
          <mxGeometry width="50" height="50" relative="1" as="geometry">
            <mxPoint x="510" y="520" as="sourcePoint" />
            <mxPoint x="580" y="630" as="targetPoint" />
          </mxGeometry>
        </mxCell>
        <mxCell id="NEWfJnRq4Y2I6aakKRTM-11" value="&lt;font style=&quot;font-size: 24px;&quot;&gt;the number of spaces to the left&amp;nbsp;&lt;br&gt;and right of the numbers in a row is&lt;br&gt;n-i&lt;br&gt;&lt;/font&gt;" style="text;html=1;align=center;verticalAlign=middle;resizable=0;points=[];autosize=1;strokeColor=none;fillColor=none;" vertex="1" parent="1">
          <mxGeometry x="360" y="753" width="400" height="100" as="geometry" />
        </mxCell>
      </root>
    </mxGraphModel>
  </diagram>
</mxfile>
